<mxfile host="app.diagrams.net" agent="Mozilla/5.0 (X11; Ubuntu; Linux x86_64; rv:139.0) Gecko/20100101 Firefox/139.0" version="27.1.6">
  <diagram name="Page-1" id="POaLV1qd_8ivgcaJ0k6t">
    <mxGraphModel dx="5090" dy="2903" grid="1" gridSize="10" guides="1" tooltips="1" connect="1" arrows="1" fold="1" page="1" pageScale="1" pageWidth="850" pageHeight="1100" math="0" shadow="0">
      <root>
        <mxCell id="0" />
        <mxCell id="1" parent="0" />
        <mxCell id="8z2NHTdnz_yu78FJvaMC-28" value="" style="rounded=1;whiteSpace=wrap;html=1;strokeColor=none;strokeWidth=3;align=center;verticalAlign=middle;fontFamily=Helvetica;fontSize=12;fontColor=default;fillColor=#142037;" parent="1" vertex="1">
          <mxGeometry x="-1690" y="-1080" width="1140" height="610" as="geometry" />
        </mxCell>
        <mxCell id="8z2NHTdnz_yu78FJvaMC-19" style="edgeStyle=orthogonalEdgeStyle;rounded=0;orthogonalLoop=1;jettySize=auto;html=1;exitX=0.5;exitY=1;exitDx=0;exitDy=0;" parent="1" edge="1">
          <mxGeometry relative="1" as="geometry">
            <mxPoint x="-1400" y="-680" as="sourcePoint" />
            <mxPoint x="-1400" y="-680" as="targetPoint" />
          </mxGeometry>
        </mxCell>
        <mxCell id="8z2NHTdnz_yu78FJvaMC-63" value="&lt;div&gt;&lt;font style=&quot;font-size: 23px;&quot;&gt;DOCUMENTS&lt;/font&gt;&lt;/div&gt;&lt;div&gt;&lt;font style=&quot;font-size: 23px;&quot;&gt;&lt;u&gt;&lt;br&gt;&lt;/u&gt;&lt;/font&gt;&lt;/div&gt;&lt;div&gt;&lt;table&gt;&lt;tbody&gt;&lt;tr align=&quot;left&quot;&gt;&lt;td&gt;&lt;font&gt;TEXT_DOC_ID&lt;/font&gt;&lt;/td&gt;&lt;/tr&gt;&lt;tr align=&quot;left&quot;&gt;&lt;td&gt;&lt;font&gt;&lt;span&gt;TEXT_CHAR_BEGIN&lt;/span&gt;&lt;/font&gt;&lt;/td&gt;&lt;/tr&gt;&lt;tr align=&quot;left&quot;&gt;&lt;td&gt;&lt;font&gt;TEXT_CHAR_END&lt;/font&gt;&lt;/td&gt;&lt;/tr&gt;&lt;tr align=&quot;left&quot;&gt;&lt;td&gt;&lt;font&gt;TEXT&lt;/font&gt;&lt;/td&gt;&lt;/tr&gt;&lt;/tbody&gt;&lt;/table&gt;&lt;br&gt;&lt;/div&gt;" style="rounded=1;whiteSpace=wrap;html=1;strokeColor=#22D234;strokeWidth=3;align=center;verticalAlign=middle;fontFamily=Helvetica;fontSize=12;fontColor=default;labelBackgroundColor=none;fillColor=#A2D2A4;" parent="1" vertex="1">
          <mxGeometry x="-1170" y="-750" width="200" height="170" as="geometry" />
        </mxCell>
        <mxCell id="8z2NHTdnz_yu78FJvaMC-69" value="&lt;div&gt;&lt;font style=&quot;font-size: 23px;&quot;&gt;CUSTOMER_SUPPORT_TICKETS&lt;/font&gt;&lt;br&gt;&lt;br&gt;&lt;br&gt;&lt;table&gt;&lt;tbody&gt;&lt;tr&gt;&lt;td align=&quot;left&quot;&gt;TICKET_ID&lt;/td&gt;            &lt;td align=&quot;left&quot;&gt;&lt;br&gt;&lt;/td&gt;            &lt;td align=&quot;left&quot;&gt;&lt;br&gt;&lt;/td&gt;            &lt;td align=&quot;left&quot;&gt;&lt;br&gt;&lt;/td&gt;            &lt;td&gt;&lt;br&gt;&lt;/td&gt;            &lt;td&gt;&lt;br&gt;&lt;/td&gt;        &lt;/tr&gt;        &lt;tr&gt;            &lt;td align=&quot;left&quot;&gt;CUSTOMER_NAME&lt;/td&gt;            &lt;td align=&quot;left&quot;&gt;&lt;br&gt;&lt;/td&gt;            &lt;td align=&quot;left&quot;&gt;&lt;br&gt;&lt;/td&gt;            &lt;td align=&quot;left&quot;&gt;&lt;br&gt;&lt;/td&gt;            &lt;td&gt;&lt;br&gt;&lt;/td&gt;            &lt;td&gt;&lt;br&gt;&lt;/td&gt;        &lt;/tr&gt;        &lt;tr&gt;            &lt;td align=&quot;left&quot;&gt;CUSTOMER_EMAIL&lt;/td&gt;            &lt;td align=&quot;left&quot;&gt;&lt;br&gt;&lt;/td&gt;            &lt;td align=&quot;left&quot;&gt;&lt;br&gt;&lt;/td&gt;            &lt;td align=&quot;left&quot;&gt;&lt;br&gt;&lt;/td&gt;            &lt;td&gt;&lt;br&gt;&lt;/td&gt;            &lt;td&gt;&lt;br&gt;&lt;/td&gt;        &lt;/tr&gt;        &lt;tr&gt;            &lt;td align=&quot;left&quot;&gt;CUSTOMER_AGE&lt;/td&gt;            &lt;td align=&quot;left&quot;&gt;&lt;br&gt;&lt;/td&gt;            &lt;td align=&quot;left&quot;&gt;&lt;br&gt;&lt;/td&gt;            &lt;td align=&quot;left&quot;&gt;&lt;br&gt;&lt;/td&gt;            &lt;td&gt;&lt;br&gt;&lt;/td&gt;            &lt;td&gt;&lt;br&gt;&lt;/td&gt;        &lt;/tr&gt;        &lt;tr&gt;            &lt;td align=&quot;left&quot;&gt;CUSTOMER_GENDER&lt;/td&gt;            &lt;td align=&quot;left&quot;&gt;&lt;br&gt;&lt;/td&gt;            &lt;td align=&quot;left&quot;&gt;&lt;br&gt;&lt;/td&gt;            &lt;td align=&quot;left&quot;&gt;&lt;br&gt;&lt;/td&gt;            &lt;td&gt;&lt;br&gt;&lt;/td&gt;            &lt;td&gt;&lt;br&gt;&lt;/td&gt;        &lt;/tr&gt;        &lt;tr&gt;            &lt;td align=&quot;left&quot;&gt;PRODUCT_PURCHASED&lt;/td&gt;            &lt;td align=&quot;left&quot;&gt;&lt;br&gt;&lt;/td&gt;            &lt;td align=&quot;left&quot;&gt;&lt;br&gt;&lt;/td&gt;            &lt;td align=&quot;left&quot;&gt;&lt;br&gt;&lt;/td&gt;            &lt;td&gt;&lt;br&gt;&lt;/td&gt;            &lt;td&gt;&lt;br&gt;&lt;/td&gt;        &lt;/tr&gt;        &lt;tr&gt;            &lt;td align=&quot;left&quot;&gt;DATE_OF_PURCHASE&lt;/td&gt;            &lt;td align=&quot;left&quot;&gt;&lt;br&gt;&lt;/td&gt;            &lt;td align=&quot;left&quot;&gt;&lt;br&gt;&lt;/td&gt;            &lt;td align=&quot;left&quot;&gt;&lt;br&gt;&lt;/td&gt;            &lt;td&gt;&lt;br&gt;&lt;/td&gt;            &lt;td&gt;&lt;br&gt;&lt;/td&gt;        &lt;/tr&gt;        &lt;tr&gt;            &lt;td align=&quot;left&quot;&gt;TICKET_TYPE&lt;/td&gt;            &lt;td align=&quot;left&quot;&gt;&lt;br&gt;&lt;/td&gt;            &lt;td align=&quot;left&quot;&gt;&lt;br&gt;&lt;/td&gt;            &lt;td align=&quot;left&quot;&gt;&lt;br&gt;&lt;/td&gt;            &lt;td&gt;&lt;br&gt;&lt;/td&gt;            &lt;td&gt;&lt;br&gt;&lt;/td&gt;        &lt;/tr&gt;        &lt;tr&gt;            &lt;td align=&quot;left&quot;&gt;TICKET_SUBJECT&lt;/td&gt;            &lt;td align=&quot;left&quot;&gt;&lt;br&gt;&lt;/td&gt;            &lt;td align=&quot;left&quot;&gt;&lt;br&gt;&lt;/td&gt;            &lt;td align=&quot;left&quot;&gt;&lt;br&gt;&lt;/td&gt;            &lt;td&gt;&lt;br&gt;&lt;/td&gt;            &lt;td&gt;&lt;br&gt;&lt;/td&gt;        &lt;/tr&gt;        &lt;tr&gt;            &lt;td align=&quot;left&quot;&gt;TICKET_DESCRIPTION&lt;/td&gt;            &lt;td align=&quot;left&quot;&gt;&lt;br&gt;&lt;/td&gt;            &lt;td align=&quot;left&quot;&gt;&lt;br&gt;&lt;/td&gt;            &lt;td align=&quot;left&quot;&gt;&lt;br&gt;&lt;/td&gt;            &lt;td&gt;&lt;br&gt;&lt;/td&gt;            &lt;td&gt;&lt;br&gt;&lt;/td&gt;        &lt;/tr&gt;        &lt;tr&gt;            &lt;td align=&quot;left&quot;&gt;TICKET_STATUS&lt;/td&gt;            &lt;td align=&quot;left&quot;&gt;&lt;br&gt;&lt;/td&gt;            &lt;td align=&quot;left&quot;&gt;&lt;br&gt;&lt;/td&gt;            &lt;td align=&quot;left&quot;&gt;&lt;br&gt;&lt;/td&gt;            &lt;td&gt;&lt;br&gt;&lt;/td&gt;            &lt;td&gt;&lt;br&gt;&lt;/td&gt;        &lt;/tr&gt;        &lt;tr&gt;            &lt;td align=&quot;left&quot;&gt;RESOLUTION&lt;/td&gt;            &lt;td align=&quot;left&quot;&gt;&lt;br&gt;&lt;/td&gt;            &lt;td align=&quot;left&quot;&gt;&lt;br&gt;&lt;/td&gt;            &lt;td align=&quot;left&quot;&gt;&lt;br&gt;&lt;/td&gt;            &lt;td&gt;&lt;br&gt;&lt;/td&gt;            &lt;td&gt;&lt;br&gt;&lt;/td&gt;        &lt;/tr&gt;        &lt;tr&gt;            &lt;td align=&quot;left&quot;&gt;TICKET_PRIORITY&lt;/td&gt;            &lt;td align=&quot;left&quot;&gt;&lt;br&gt;&lt;/td&gt;            &lt;td align=&quot;left&quot;&gt;&lt;br&gt;&lt;/td&gt;            &lt;td align=&quot;left&quot;&gt;&lt;br&gt;&lt;/td&gt;            &lt;td&gt;&lt;br&gt;&lt;/td&gt;            &lt;td&gt;&lt;br&gt;&lt;/td&gt;        &lt;/tr&gt;        &lt;tr&gt;            &lt;td align=&quot;left&quot;&gt;TICKET_CHANNEL&lt;/td&gt;            &lt;td align=&quot;left&quot;&gt;&lt;br&gt;&lt;/td&gt;            &lt;td align=&quot;left&quot;&gt;&lt;br&gt;&lt;/td&gt;            &lt;td align=&quot;left&quot;&gt;&lt;br&gt;&lt;/td&gt;            &lt;td&gt;&lt;br&gt;&lt;/td&gt;            &lt;td&gt;&lt;br&gt;&lt;/td&gt;        &lt;/tr&gt;        &lt;tr&gt;            &lt;td align=&quot;left&quot;&gt;FIRST_RESPONSE_TIME&lt;/td&gt;            &lt;td align=&quot;left&quot;&gt;&lt;br&gt;&lt;/td&gt;            &lt;td align=&quot;left&quot;&gt;&lt;br&gt;&lt;/td&gt;            &lt;td align=&quot;left&quot;&gt;&lt;br&gt;&lt;/td&gt;            &lt;td&gt;&lt;br&gt;&lt;/td&gt;            &lt;td&gt;&lt;br&gt;&lt;/td&gt;        &lt;/tr&gt;        &lt;tr&gt;            &lt;td align=&quot;left&quot;&gt;TIME_TO_RESOLUTION&lt;/td&gt;            &lt;td align=&quot;left&quot;&gt;&lt;br&gt;&lt;/td&gt;            &lt;td align=&quot;left&quot;&gt;&lt;br&gt;&lt;/td&gt;            &lt;td align=&quot;left&quot;&gt;&lt;br&gt;&lt;/td&gt;            &lt;td&gt;&lt;br&gt;&lt;/td&gt;            &lt;td&gt;&lt;br&gt;&lt;/td&gt;        &lt;/tr&gt;        &lt;tr&gt;            &lt;td&gt;CUSTOMER_SATISFACTION_RATING&lt;/td&gt;            &lt;td&gt;&lt;br&gt;&lt;/td&gt;            &lt;td&gt;&lt;br&gt;&lt;/td&gt;            &lt;td&gt;&lt;br&gt;&lt;/td&gt;            &lt;td&gt;&lt;br&gt;&lt;/td&gt;            &lt;td&gt;&lt;br&gt;&lt;/td&gt;&lt;/tr&gt;&lt;/tbody&gt;&lt;/table&gt;&lt;br&gt;&lt;/div&gt;" style="rounded=1;whiteSpace=wrap;html=1;strokeColor=#22D234;strokeWidth=3;align=center;verticalAlign=middle;fontFamily=Helvetica;fontSize=12;fontColor=default;labelBackgroundColor=none;fillColor=#A2D2A4;gradientColor=#617E62;" parent="1" vertex="1">
          <mxGeometry x="-1640" y="-1020" width="390" height="430" as="geometry" />
        </mxCell>
        <mxCell id="8z2NHTdnz_yu78FJvaMC-68" value="&lt;div&gt;&lt;font style=&quot;font-size: 23px;&quot;&gt;MY_VIEW&lt;/font&gt;&lt;br&gt;&lt;br&gt;&lt;br&gt;&lt;table&gt;&lt;tbody&gt;&lt;tr&gt;&lt;td align=&quot;left&quot;&gt;TICKET_ID&lt;/td&gt;            &lt;td align=&quot;left&quot;&gt;&lt;br&gt;&lt;/td&gt;            &lt;td align=&quot;left&quot;&gt;&lt;br&gt;&lt;/td&gt;            &lt;td align=&quot;left&quot;&gt;&lt;br&gt;&lt;/td&gt;            &lt;td&gt;&lt;br&gt;&lt;/td&gt;            &lt;td&gt;&lt;br&gt;&lt;/td&gt;        &lt;/tr&gt;        &lt;tr&gt;            &lt;td align=&quot;left&quot;&gt;CUSTOMER_NAME&lt;/td&gt;            &lt;td align=&quot;left&quot;&gt;&lt;br&gt;&lt;/td&gt;            &lt;td align=&quot;left&quot;&gt;&lt;br&gt;&lt;/td&gt;            &lt;td align=&quot;left&quot;&gt;&lt;br&gt;&lt;/td&gt;            &lt;td&gt;&lt;br&gt;&lt;/td&gt;            &lt;td&gt;&lt;br&gt;&lt;/td&gt;        &lt;/tr&gt;        &lt;tr&gt;            &lt;td align=&quot;left&quot;&gt;CUSTOMER_EMAIL&lt;/td&gt;            &lt;td align=&quot;left&quot;&gt;&lt;br&gt;&lt;/td&gt;            &lt;td align=&quot;left&quot;&gt;&lt;br&gt;&lt;/td&gt;            &lt;td align=&quot;left&quot;&gt;&lt;br&gt;&lt;/td&gt;            &lt;td&gt;&lt;br&gt;&lt;/td&gt;            &lt;td&gt;&lt;br&gt;&lt;/td&gt;        &lt;/tr&gt;        &lt;tr&gt;            &lt;td align=&quot;left&quot;&gt;CUSTOMER_AGE&lt;/td&gt;            &lt;td align=&quot;left&quot;&gt;&lt;br&gt;&lt;/td&gt;            &lt;td align=&quot;left&quot;&gt;&lt;br&gt;&lt;/td&gt;            &lt;td align=&quot;left&quot;&gt;&lt;br&gt;&lt;/td&gt;            &lt;td&gt;&lt;br&gt;&lt;/td&gt;            &lt;td&gt;&lt;br&gt;&lt;/td&gt;        &lt;/tr&gt;        &lt;tr&gt;            &lt;td align=&quot;left&quot;&gt;CUSTOMER_GENDER&lt;/td&gt;            &lt;td align=&quot;left&quot;&gt;&lt;br&gt;&lt;/td&gt;            &lt;td align=&quot;left&quot;&gt;&lt;br&gt;&lt;/td&gt;            &lt;td align=&quot;left&quot;&gt;&lt;br&gt;&lt;/td&gt;            &lt;td&gt;&lt;br&gt;&lt;/td&gt;            &lt;td&gt;&lt;br&gt;&lt;/td&gt;        &lt;/tr&gt;        &lt;tr&gt;            &lt;td align=&quot;left&quot;&gt;PRODUCT_PURCHASED&lt;/td&gt;            &lt;td align=&quot;left&quot;&gt;&lt;br&gt;&lt;/td&gt;            &lt;td align=&quot;left&quot;&gt;&lt;br&gt;&lt;/td&gt;            &lt;td align=&quot;left&quot;&gt;&lt;br&gt;&lt;/td&gt;            &lt;td&gt;&lt;br&gt;&lt;/td&gt;            &lt;td&gt;&lt;br&gt;&lt;/td&gt;        &lt;/tr&gt;        &lt;tr&gt;            &lt;td align=&quot;left&quot;&gt;DATE_OF_PURCHASE&lt;/td&gt;            &lt;td align=&quot;left&quot;&gt;&lt;br&gt;&lt;/td&gt;            &lt;td align=&quot;left&quot;&gt;&lt;br&gt;&lt;/td&gt;            &lt;td align=&quot;left&quot;&gt;&lt;br&gt;&lt;/td&gt;            &lt;td&gt;&lt;br&gt;&lt;/td&gt;            &lt;td&gt;&lt;br&gt;&lt;/td&gt;        &lt;/tr&gt;        &lt;tr&gt;            &lt;td align=&quot;left&quot;&gt;TICKET_TYPE&lt;/td&gt;            &lt;td align=&quot;left&quot;&gt;&lt;br&gt;&lt;/td&gt;            &lt;td align=&quot;left&quot;&gt;&lt;br&gt;&lt;/td&gt;            &lt;td align=&quot;left&quot;&gt;&lt;br&gt;&lt;/td&gt;            &lt;td&gt;&lt;br&gt;&lt;/td&gt;            &lt;td&gt;&lt;br&gt;&lt;/td&gt;        &lt;/tr&gt;        &lt;tr&gt;            &lt;td align=&quot;left&quot;&gt;TICKET_SUBJECT&lt;/td&gt;            &lt;td align=&quot;left&quot;&gt;&lt;br&gt;&lt;/td&gt;            &lt;td align=&quot;left&quot;&gt;&lt;br&gt;&lt;/td&gt;            &lt;td align=&quot;left&quot;&gt;&lt;br&gt;&lt;/td&gt;            &lt;td&gt;&lt;br&gt;&lt;/td&gt;            &lt;td&gt;&lt;br&gt;&lt;/td&gt;        &lt;/tr&gt;        &lt;tr&gt;            &lt;td align=&quot;left&quot;&gt;TICKET_DESCRIPTION&lt;/td&gt;            &lt;td align=&quot;left&quot;&gt;&lt;br&gt;&lt;/td&gt;            &lt;td align=&quot;left&quot;&gt;&lt;br&gt;&lt;/td&gt;            &lt;td align=&quot;left&quot;&gt;&lt;br&gt;&lt;/td&gt;            &lt;td&gt;&lt;br&gt;&lt;/td&gt;            &lt;td&gt;&lt;br&gt;&lt;/td&gt;        &lt;/tr&gt;        &lt;tr&gt;            &lt;td align=&quot;left&quot;&gt;TICKET_STATUS&lt;/td&gt;            &lt;td align=&quot;left&quot;&gt;&lt;br&gt;&lt;/td&gt;            &lt;td align=&quot;left&quot;&gt;&lt;br&gt;&lt;/td&gt;            &lt;td align=&quot;left&quot;&gt;&lt;br&gt;&lt;/td&gt;            &lt;td&gt;&lt;br&gt;&lt;/td&gt;            &lt;td&gt;&lt;br&gt;&lt;/td&gt;        &lt;/tr&gt;        &lt;tr&gt;            &lt;td align=&quot;left&quot;&gt;RESOLUTION&lt;/td&gt;            &lt;td align=&quot;left&quot;&gt;&lt;br&gt;&lt;/td&gt;            &lt;td align=&quot;left&quot;&gt;&lt;br&gt;&lt;/td&gt;            &lt;td align=&quot;left&quot;&gt;&lt;br&gt;&lt;/td&gt;            &lt;td&gt;&lt;br&gt;&lt;/td&gt;            &lt;td&gt;&lt;br&gt;&lt;/td&gt;        &lt;/tr&gt;        &lt;tr&gt;            &lt;td align=&quot;left&quot;&gt;TICKET_PRIORITY&lt;/td&gt;            &lt;td align=&quot;left&quot;&gt;&lt;br&gt;&lt;/td&gt;            &lt;td align=&quot;left&quot;&gt;&lt;br&gt;&lt;/td&gt;            &lt;td align=&quot;left&quot;&gt;&lt;br&gt;&lt;/td&gt;            &lt;td&gt;&lt;br&gt;&lt;/td&gt;            &lt;td&gt;&lt;br&gt;&lt;/td&gt;        &lt;/tr&gt;        &lt;tr&gt;            &lt;td align=&quot;left&quot;&gt;TICKET_CHANNEL&lt;/td&gt;            &lt;td align=&quot;left&quot;&gt;&lt;br&gt;&lt;/td&gt;            &lt;td align=&quot;left&quot;&gt;&lt;br&gt;&lt;/td&gt;            &lt;td align=&quot;left&quot;&gt;&lt;br&gt;&lt;/td&gt;            &lt;td&gt;&lt;br&gt;&lt;/td&gt;            &lt;td&gt;&lt;br&gt;&lt;/td&gt;        &lt;/tr&gt;        &lt;tr&gt;            &lt;td align=&quot;left&quot;&gt;FIRST_RESPONSE_TIME&lt;/td&gt;            &lt;td align=&quot;left&quot;&gt;&lt;br&gt;&lt;/td&gt;            &lt;td align=&quot;left&quot;&gt;&lt;br&gt;&lt;/td&gt;            &lt;td align=&quot;left&quot;&gt;&lt;br&gt;&lt;/td&gt;            &lt;td&gt;&lt;br&gt;&lt;/td&gt;            &lt;td&gt;&lt;br&gt;&lt;/td&gt;        &lt;/tr&gt;        &lt;tr&gt;            &lt;td align=&quot;left&quot;&gt;TIME_TO_RESOLUTION&lt;/td&gt;            &lt;td align=&quot;left&quot;&gt;&lt;br&gt;&lt;/td&gt;            &lt;td align=&quot;left&quot;&gt;&lt;br&gt;&lt;/td&gt;            &lt;td align=&quot;left&quot;&gt;&lt;br&gt;&lt;/td&gt;            &lt;td&gt;&lt;br&gt;&lt;/td&gt;            &lt;td&gt;&lt;br&gt;&lt;/td&gt;        &lt;/tr&gt;        &lt;tr&gt;            &lt;td&gt;CUSTOMER_SATISFACTION_RATING&lt;/td&gt;            &lt;td&gt;&lt;br&gt;&lt;/td&gt;            &lt;td&gt;&lt;br&gt;&lt;/td&gt;            &lt;td&gt;&lt;br&gt;&lt;/td&gt;            &lt;td&gt;&lt;br&gt;&lt;/td&gt;            &lt;td&gt;&lt;br&gt;&lt;/td&gt;&lt;/tr&gt;&lt;/tbody&gt;&lt;/table&gt;&lt;br&gt;&lt;/div&gt;" style="rounded=1;whiteSpace=wrap;html=1;strokeColor=#22D234;strokeWidth=3;align=center;verticalAlign=middle;fontFamily=Helvetica;fontSize=12;fontColor=default;labelBackgroundColor=none;fillColor=#A2D2A4;" parent="1" vertex="1">
          <mxGeometry x="-1580" y="-970" width="390" height="430" as="geometry" />
        </mxCell>
        <mxCell id="Z1u9556wt53OnKgccqqB-5" value="" style="rounded=1;whiteSpace=wrap;html=1;strokeColor=#22D234;strokeWidth=3;align=center;verticalAlign=middle;fontFamily=Helvetica;fontSize=12;fontColor=default;labelBackgroundColor=none;fillColor=none;" parent="1" vertex="1">
          <mxGeometry x="-1160" y="-690" width="140" height="60" as="geometry" />
        </mxCell>
        <mxCell id="URa2SMM36MfCH6HbQujx-26" style="edgeStyle=orthogonalEdgeStyle;shape=connector;rounded=0;orthogonalLoop=1;jettySize=auto;html=1;exitX=1;exitY=0.5;exitDx=0;exitDy=0;entryX=0;entryY=0.5;entryDx=0;entryDy=0;strokeColor=#B3B3B3;strokeWidth=4;align=center;verticalAlign=middle;fontFamily=Helvetica;fontSize=12;fontColor=default;labelBackgroundColor=none;endArrow=classic;" edge="1" parent="1" source="Z1u9556wt53OnKgccqqB-12" target="Z1u9556wt53OnKgccqqB-13">
          <mxGeometry relative="1" as="geometry">
            <Array as="points">
              <mxPoint x="-1220" y="-720" />
              <mxPoint x="-1220" y="-620" />
            </Array>
          </mxGeometry>
        </mxCell>
        <mxCell id="Z1u9556wt53OnKgccqqB-12" value="" style="rounded=1;whiteSpace=wrap;html=1;strokeColor=#22D234;strokeWidth=3;align=center;verticalAlign=middle;fontFamily=Helvetica;fontSize=12;fontColor=default;labelBackgroundColor=none;fillColor=none;" parent="1" vertex="1">
          <mxGeometry x="-1500" y="-730" width="140" height="20" as="geometry" />
        </mxCell>
        <mxCell id="Z1u9556wt53OnKgccqqB-13" value="" style="rounded=1;whiteSpace=wrap;html=1;strokeColor=#22D234;strokeWidth=3;align=center;verticalAlign=middle;fontFamily=Helvetica;fontSize=12;fontColor=default;labelBackgroundColor=none;fillColor=none;" parent="1" vertex="1">
          <mxGeometry x="-1160" y="-630" width="70" height="20" as="geometry" />
        </mxCell>
        <mxCell id="URa2SMM36MfCH6HbQujx-20" value="&lt;div&gt;&lt;font style=&quot;font-size: 23px;&quot;&gt;DOCUMENTS_AI_LAB_&lt;/font&gt;&lt;/div&gt;&lt;div&gt;&lt;font style=&quot;font-size: 23px;&quot;&gt;MY_VIEW_VIEW&lt;/font&gt;&lt;/div&gt;&lt;div&gt;&lt;br&gt;&lt;br&gt;&lt;table&gt;&lt;tbody&gt;&lt;tr&gt;&lt;td align=&quot;left&quot;&gt;TICKET_ID&lt;/td&gt;            &lt;td&gt;&lt;br&gt;&lt;/td&gt;            &lt;td&gt;&lt;br&gt;&lt;/td&gt;            &lt;td&gt;&lt;br&gt;&lt;/td&gt;            &lt;td&gt;&lt;br&gt;&lt;/td&gt;            &lt;td&gt;&lt;br&gt;&lt;/td&gt;        &lt;/tr&gt;        &lt;tr&gt;            &lt;td align=&quot;left&quot;&gt;CUSTOMER_NAME&lt;/td&gt;            &lt;td&gt;&lt;br&gt;&lt;/td&gt;            &lt;td&gt;&lt;br&gt;&lt;/td&gt;            &lt;td&gt;&lt;br&gt;&lt;/td&gt;            &lt;td&gt;&lt;br&gt;&lt;/td&gt;            &lt;td&gt;&lt;br&gt;&lt;/td&gt;        &lt;/tr&gt;        &lt;tr&gt;            &lt;td align=&quot;left&quot;&gt;CUSTOMER_EMAIL&lt;/td&gt;            &lt;td&gt;&lt;br&gt;&lt;/td&gt;            &lt;td&gt;&lt;br&gt;&lt;/td&gt;            &lt;td&gt;&lt;br&gt;&lt;/td&gt;            &lt;td&gt;&lt;br&gt;&lt;/td&gt;            &lt;td&gt;&lt;br&gt;&lt;/td&gt;        &lt;/tr&gt;        &lt;tr&gt;            &lt;td align=&quot;left&quot;&gt;CUSTOMER_AGE&lt;/td&gt;            &lt;td&gt;&lt;br&gt;&lt;/td&gt;            &lt;td&gt;&lt;br&gt;&lt;/td&gt;            &lt;td&gt;&lt;br&gt;&lt;/td&gt;            &lt;td&gt;&lt;br&gt;&lt;/td&gt;            &lt;td&gt;&lt;br&gt;&lt;/td&gt;        &lt;/tr&gt;        &lt;tr&gt;            &lt;td align=&quot;left&quot;&gt;CUSTOMER_GENDER&lt;/td&gt;            &lt;td&gt;&lt;br&gt;&lt;/td&gt;            &lt;td&gt;&lt;br&gt;&lt;/td&gt;            &lt;td&gt;&lt;br&gt;&lt;/td&gt;            &lt;td&gt;&lt;br&gt;&lt;/td&gt;            &lt;td&gt;&lt;br&gt;&lt;/td&gt;        &lt;/tr&gt;        &lt;tr&gt;            &lt;td align=&quot;left&quot;&gt;PRODUCT_PURCHASED&lt;/td&gt;            &lt;td&gt;&lt;br&gt;&lt;/td&gt;            &lt;td&gt;&lt;br&gt;&lt;/td&gt;            &lt;td&gt;&lt;br&gt;&lt;/td&gt;            &lt;td&gt;&lt;br&gt;&lt;/td&gt;            &lt;td&gt;&lt;br&gt;&lt;/td&gt;        &lt;/tr&gt;        &lt;tr&gt;            &lt;td align=&quot;left&quot;&gt;DATE_OF_PURCHASE&lt;/td&gt;            &lt;td&gt;&lt;br&gt;&lt;/td&gt;            &lt;td&gt;&lt;br&gt;&lt;/td&gt;            &lt;td&gt;&lt;br&gt;&lt;/td&gt;            &lt;td&gt;&lt;br&gt;&lt;/td&gt;            &lt;td&gt;&lt;br&gt;&lt;/td&gt;        &lt;/tr&gt;        &lt;tr&gt;            &lt;td align=&quot;left&quot;&gt;TICKET_TYPE&lt;/td&gt;            &lt;td&gt;&lt;br&gt;&lt;/td&gt;            &lt;td&gt;&lt;br&gt;&lt;/td&gt;            &lt;td&gt;&lt;br&gt;&lt;/td&gt;            &lt;td&gt;&lt;br&gt;&lt;/td&gt;            &lt;td&gt;&lt;br&gt;&lt;/td&gt;        &lt;/tr&gt;        &lt;tr&gt;            &lt;td align=&quot;left&quot;&gt;TICKET_SUBJECT&lt;/td&gt;            &lt;td&gt;&lt;br&gt;&lt;/td&gt;            &lt;td&gt;&lt;br&gt;&lt;/td&gt;            &lt;td&gt;&lt;br&gt;&lt;/td&gt;            &lt;td&gt;&lt;br&gt;&lt;/td&gt;            &lt;td&gt;&lt;br&gt;&lt;/td&gt;        &lt;/tr&gt;        &lt;tr&gt;            &lt;td align=&quot;left&quot;&gt;TICKET_DESCRIPTION&lt;/td&gt;            &lt;td&gt;&lt;br&gt;&lt;/td&gt;            &lt;td&gt;&lt;br&gt;&lt;/td&gt;            &lt;td&gt;&lt;br&gt;&lt;/td&gt;            &lt;td&gt;&lt;br&gt;&lt;/td&gt;            &lt;td&gt;&lt;br&gt;&lt;/td&gt;        &lt;/tr&gt;        &lt;tr&gt;            &lt;td align=&quot;left&quot;&gt;TICKET_STATUS&lt;/td&gt;            &lt;td&gt;&lt;br&gt;&lt;/td&gt;            &lt;td&gt;&lt;br&gt;&lt;/td&gt;            &lt;td&gt;&lt;br&gt;&lt;/td&gt;            &lt;td&gt;&lt;br&gt;&lt;/td&gt;            &lt;td&gt;&lt;br&gt;&lt;/td&gt;        &lt;/tr&gt;        &lt;tr&gt;            &lt;td align=&quot;left&quot;&gt;RESOLUTION&lt;/td&gt;            &lt;td&gt;&lt;br&gt;&lt;/td&gt;            &lt;td&gt;&lt;br&gt;&lt;/td&gt;            &lt;td&gt;&lt;br&gt;&lt;/td&gt;            &lt;td&gt;&lt;br&gt;&lt;/td&gt;            &lt;td&gt;&lt;br&gt;&lt;/td&gt;        &lt;/tr&gt;        &lt;tr&gt;            &lt;td align=&quot;left&quot;&gt;TICKET_PRIORITY&lt;/td&gt;            &lt;td&gt;&lt;br&gt;&lt;/td&gt;            &lt;td&gt;&lt;br&gt;&lt;/td&gt;            &lt;td&gt;&lt;br&gt;&lt;/td&gt;            &lt;td&gt;&lt;br&gt;&lt;/td&gt;            &lt;td&gt;&lt;br&gt;&lt;/td&gt;        &lt;/tr&gt;        &lt;tr&gt;            &lt;td align=&quot;left&quot;&gt;TICKET_CHANNEL&lt;/td&gt;            &lt;td&gt;&lt;br&gt;&lt;/td&gt;            &lt;td&gt;&lt;br&gt;&lt;/td&gt;            &lt;td&gt;&lt;br&gt;&lt;/td&gt;            &lt;td&gt;&lt;br&gt;&lt;/td&gt;            &lt;td&gt;&lt;br&gt;&lt;/td&gt;        &lt;/tr&gt;        &lt;tr&gt;            &lt;td align=&quot;left&quot;&gt;FIRST_RESPONSE_TIME&lt;/td&gt;            &lt;td&gt;&lt;br&gt;&lt;/td&gt;            &lt;td&gt;&lt;br&gt;&lt;/td&gt;            &lt;td&gt;&lt;br&gt;&lt;/td&gt;            &lt;td&gt;&lt;br&gt;&lt;/td&gt;            &lt;td&gt;&lt;br&gt;&lt;/td&gt;        &lt;/tr&gt;        &lt;tr&gt;            &lt;td align=&quot;left&quot;&gt;TIME_TO_RESOLUTION&lt;/td&gt;            &lt;td&gt;&lt;br&gt;&lt;/td&gt;            &lt;td&gt;&lt;br&gt;&lt;/td&gt;            &lt;td&gt;&lt;br&gt;&lt;/td&gt;            &lt;td&gt;&lt;br&gt;&lt;/td&gt;            &lt;td&gt;&lt;br&gt;&lt;/td&gt;        &lt;/tr&gt;        &lt;tr&gt;            &lt;td align=&quot;left&quot;&gt;CUSTOMER_SATISFACTION_RATING&lt;/td&gt;            &lt;td&gt;&lt;br&gt;&lt;/td&gt;            &lt;td&gt;&lt;br&gt;&lt;/td&gt;            &lt;td&gt;&lt;br&gt;&lt;/td&gt;            &lt;td&gt;&lt;br&gt;&lt;/td&gt;            &lt;td&gt;&lt;br&gt;&lt;/td&gt;        &lt;/tr&gt;        &lt;tr&gt;            &lt;td align=&quot;left&quot;&gt;TEXT_DOC_ID&lt;/td&gt;            &lt;td&gt;&lt;br&gt;&lt;/td&gt;            &lt;td&gt;&lt;br&gt;&lt;/td&gt;            &lt;td&gt;&lt;br&gt;&lt;/td&gt;            &lt;td&gt;&lt;br&gt;&lt;/td&gt;            &lt;td&gt;&lt;br&gt;&lt;/td&gt;        &lt;/tr&gt;        &lt;tr&gt;            &lt;td align=&quot;left&quot;&gt;TEXT_CHAR_BEGIN&lt;/td&gt;            &lt;td&gt;&lt;br&gt;&lt;/td&gt;            &lt;td&gt;&lt;br&gt;&lt;/td&gt;            &lt;td&gt;&lt;br&gt;&lt;/td&gt;            &lt;td&gt;&lt;br&gt;&lt;/td&gt;            &lt;td&gt;&lt;br&gt;&lt;/td&gt;        &lt;/tr&gt;        &lt;tr&gt;            &lt;td align=&quot;left&quot;&gt;TEXT_CHAR_END&lt;/td&gt;            &lt;td&gt;&lt;br&gt;&lt;/td&gt;            &lt;td&gt;&lt;br&gt;&lt;/td&gt;            &lt;td&gt;&lt;br&gt;&lt;/td&gt;            &lt;td&gt;&lt;br&gt;&lt;/td&gt;            &lt;td&gt;&lt;br&gt;&lt;/td&gt;        &lt;/tr&gt;        &lt;tr align=&quot;left&quot;&gt;            &lt;td&gt;SOURCE&lt;/td&gt;&lt;/tr&gt;&lt;/tbody&gt;&lt;/table&gt;&lt;br&gt;&lt;/div&gt;" style="rounded=1;whiteSpace=wrap;html=1;strokeColor=#22D234;strokeWidth=3;align=center;verticalAlign=middle;fontFamily=Helvetica;fontSize=12;fontColor=default;labelBackgroundColor=none;fillColor=#A2D2A4;" vertex="1" parent="1">
          <mxGeometry x="-930" y="-1030" width="320" height="500" as="geometry" />
        </mxCell>
        <mxCell id="Z1u9556wt53OnKgccqqB-10" value="" style="rounded=1;whiteSpace=wrap;html=1;strokeColor=#22D234;strokeWidth=3;align=center;verticalAlign=middle;fontFamily=Helvetica;fontSize=12;fontColor=default;labelBackgroundColor=none;fillColor=none;" parent="1" vertex="1">
          <mxGeometry x="-900" y="-630" width="140" height="60" as="geometry" />
        </mxCell>
        <mxCell id="URa2SMM36MfCH6HbQujx-27" style="edgeStyle=orthogonalEdgeStyle;shape=connector;rounded=0;orthogonalLoop=1;jettySize=auto;html=1;exitX=1;exitY=0.5;exitDx=0;exitDy=0;entryX=0;entryY=0.5;entryDx=0;entryDy=0;strokeColor=#B3B3B3;strokeWidth=4;align=center;verticalAlign=middle;fontFamily=Helvetica;fontSize=12;fontColor=default;labelBackgroundColor=none;endArrow=classic;" edge="1" parent="1" source="Z1u9556wt53OnKgccqqB-5" target="Z1u9556wt53OnKgccqqB-10">
          <mxGeometry relative="1" as="geometry" />
        </mxCell>
        <mxCell id="URa2SMM36MfCH6HbQujx-33" value="" style="rounded=1;whiteSpace=wrap;html=1;strokeColor=#22D234;strokeWidth=3;align=center;verticalAlign=middle;fontFamily=Helvetica;fontSize=12;fontColor=default;labelBackgroundColor=none;fillColor=none;" vertex="1" parent="1">
          <mxGeometry x="-920" y="-940" width="270" height="310" as="geometry" />
        </mxCell>
        <mxCell id="URa2SMM36MfCH6HbQujx-34" value="" style="rounded=1;whiteSpace=wrap;html=1;strokeColor=#22D234;strokeWidth=3;align=center;verticalAlign=middle;fontFamily=Helvetica;fontSize=12;fontColor=default;labelBackgroundColor=none;fillColor=none;" vertex="1" parent="1">
          <mxGeometry x="-1530" y="-890" width="270" height="310" as="geometry" />
        </mxCell>
        <mxCell id="URa2SMM36MfCH6HbQujx-35" style="edgeStyle=orthogonalEdgeStyle;shape=connector;rounded=0;orthogonalLoop=1;jettySize=auto;html=1;exitX=1;exitY=0.25;exitDx=0;exitDy=0;entryX=-0.004;entryY=0.41;entryDx=0;entryDy=0;entryPerimeter=0;strokeColor=#B3B3B3;strokeWidth=4;align=center;verticalAlign=middle;fontFamily=Helvetica;fontSize=12;fontColor=default;labelBackgroundColor=none;endArrow=classic;" edge="1" parent="1" source="URa2SMM36MfCH6HbQujx-34" target="URa2SMM36MfCH6HbQujx-33">
          <mxGeometry relative="1" as="geometry" />
        </mxCell>
      </root>
    </mxGraphModel>
  </diagram>
</mxfile>
